<svg width="216" height="226" viewBox="0 0 216 226" fill="none" xmlns="http://www.w3.org/2000/svg">
<g opacity="0.8" clip-path="url(#clip0_2234_9590)">
<path d="M34.0829 164.27C35.2502 165.167 35.4507 166.718 34.5507 167.889C33.6506 169.06 32.1002 169.266 30.9329 168.369C29.7656 167.472 29.5651 165.92 30.4652 164.749C31.3652 163.578 33.0129 163.447 34.0829 164.27Z" fill="#FFCF2D"/>
<path d="M47.5082 146.799C48.6755 147.696 48.876 149.247 47.9759 150.418C47.0759 151.589 45.5255 151.795 44.3582 150.898C43.1909 150.001 42.9904 148.45 43.8905 147.279C44.7155 146.205 46.4382 145.977 47.5082 146.799Z" fill="#FFCF2D"/>
<path d="M60.8583 129.427C62.0256 130.324 62.2261 131.875 61.326 133.046C60.426 134.217 58.8756 134.423 57.7083 133.526C56.541 132.629 56.3405 131.078 57.2406 129.907C58.1406 128.735 59.7883 128.605 60.8583 129.427Z" fill="#FFCF2D"/>
<path d="M74.2836 111.957C75.4509 112.854 75.6514 114.405 74.7513 115.576C73.8513 116.748 72.3008 116.953 71.1336 116.056C69.9663 115.159 69.7658 113.608 70.6659 112.437C71.5659 111.266 73.2136 111.135 74.2836 111.957Z" fill="#FFCF2D"/>
<path d="M87.7089 94.4873C88.8762 95.3844 89.0766 96.9355 88.1766 98.1067C87.2766 99.2779 85.7261 99.4834 84.5589 98.5864C83.3916 97.6894 83.1911 96.1382 84.0911 94.9671C84.9162 93.8935 86.6389 93.6651 87.7089 94.4873Z" fill="#FFCF2D"/>
<path d="M101.134 77.0176C102.301 77.9147 102.502 79.4658 101.602 80.637C100.702 81.8081 99.1514 82.0137 97.9841 81.1167C96.8169 80.2197 96.6164 78.6685 97.5164 77.4973C98.4165 76.3262 100.064 76.1953 101.134 77.0176Z" fill="#FFCF2D"/>
<path d="M114.484 59.6455C115.652 60.5426 115.852 62.0937 114.952 63.2649C114.052 64.4361 112.502 64.6417 111.334 63.7446C110.167 62.8476 109.967 61.2964 110.867 60.1253C111.767 58.9541 113.414 58.8233 114.484 59.6455Z" fill="#FFCF2D"/>
<path d="M127.91 42.1758C129.077 43.0729 129.277 44.624 128.377 45.7952C127.477 46.9663 125.927 47.1719 124.76 46.2749C123.592 45.3779 123.392 43.8267 124.292 42.6556C125.192 41.4844 126.84 41.3535 127.91 42.1758Z" fill="#FFCF2D"/>
<path d="M141.335 24.7061C142.502 25.6032 142.703 27.1543 141.803 28.3254C140.903 29.4966 139.352 29.7022 138.185 28.8052C137.018 27.9081 136.817 26.357 137.717 25.1858C138.542 24.1123 140.265 23.8838 141.335 24.7061Z" fill="#FFCF2D"/>
<path d="M48.5766 175.407C49.7439 176.304 49.9443 177.855 49.0443 179.027C48.1443 180.198 46.5938 180.403 45.4265 179.506C44.2593 178.609 44.0588 177.058 44.9588 175.887C45.8588 174.716 47.4093 174.51 48.5766 175.407Z" fill="#FFCF2D"/>
<path d="M62.0019 157.938C63.1692 158.835 63.3696 160.386 62.4696 161.557C61.5696 162.728 60.0191 162.934 58.8518 162.037C57.6845 161.14 57.4841 159.588 58.3841 158.417C59.2091 157.344 60.8346 157.041 62.0019 157.938Z" fill="#FFCF2D"/>
<path d="M75.352 140.565C76.5193 141.463 76.7197 143.014 75.8197 144.185C74.9197 145.356 73.3692 145.562 72.2019 144.665C71.0346 143.768 70.8342 142.216 71.7342 141.045C72.6342 139.874 74.1847 139.668 75.352 140.565Z" fill="#FFCF2D"/>
<path d="M88.7773 123.096C89.9446 123.993 90.145 125.544 89.245 126.715C88.345 127.886 86.7945 128.092 85.6272 127.195C84.4599 126.298 84.2595 124.747 85.1595 123.575C86.0595 122.404 87.61 122.199 88.7773 123.096Z" fill="#FFCF2D"/>
<path d="M102.203 105.625C103.37 106.522 103.57 108.073 102.67 109.244C101.77 110.416 100.22 110.621 99.0525 109.724C97.8852 108.827 97.6848 107.276 98.5848 106.105C99.4098 105.031 101.035 104.728 102.203 105.625Z" fill="#FFCF2D"/>
<path d="M115.628 88.1553C116.795 89.0524 116.996 90.6035 116.096 91.7747C115.196 92.9458 113.645 93.1514 112.478 92.2544C111.311 91.3573 111.11 89.8062 112.01 88.635C112.91 87.4639 114.461 87.2583 115.628 88.1553Z" fill="#FFCF2D"/>
<path d="M128.978 70.7833C130.145 71.6803 130.346 73.2314 129.446 74.4026C128.546 75.5738 126.995 75.7794 125.828 74.8823C124.661 73.9853 124.46 72.4341 125.36 71.263C126.26 70.0918 127.811 69.8862 128.978 70.7833Z" fill="#FFCF2D"/>
<path d="M142.403 53.3135C143.571 54.2106 143.771 55.7617 142.871 56.9329C141.971 58.104 140.42 58.3096 139.253 57.4126C138.086 56.5156 137.885 54.9644 138.785 53.7932C139.685 52.6221 141.236 52.4165 142.403 53.3135Z" fill="#FFCF2D"/>
<path d="M155.829 35.8438C156.996 36.7408 157.196 38.292 156.296 39.4631C155.396 40.6343 153.846 40.8399 152.678 39.9429C151.511 39.0458 151.311 37.4947 152.211 36.3235C153.036 35.2499 154.661 34.9468 155.829 35.8438Z" fill="#FFCF2D"/>
<path d="M5.1928 142.067C6.36008 142.964 6.56053 144.516 5.66052 145.687C4.7605 146.858 3.21003 147.064 2.04275 146.166C0.875462 145.269 0.675012 143.718 1.57503 142.547C2.47504 141.376 4.02552 141.17 5.1928 142.067Z" fill="#FFCF2D"/>
<path d="M18.6181 124.598C19.7854 125.495 19.9858 127.046 19.0858 128.217C18.1858 129.388 16.6353 129.594 15.468 128.697C14.3008 127.8 14.1003 126.249 15.0003 125.077C15.8253 124.004 17.4508 123.701 18.6181 124.598Z" fill="#FFCF2D"/>
<path d="M31.9682 107.226C33.1355 108.123 33.3359 109.674 32.4359 110.845C31.5359 112.016 29.9854 112.222 28.8181 111.325C27.6509 110.428 27.5254 108.779 28.3504 107.705C29.2504 106.534 30.8009 106.329 31.9682 107.226Z" fill="#FFCF2D"/>
<path d="M45.3935 89.7559C46.5608 90.6529 46.7612 92.2041 45.8612 93.3752C44.9612 94.5464 43.4107 94.752 42.2434 93.855C41.0761 92.9579 40.9507 91.3092 41.7757 90.2356C42.6007 89.1621 44.2262 88.8589 45.3935 89.7559Z" fill="#FFCF2D"/>
<path d="M58.8188 72.2862C59.9861 73.1832 60.1865 74.7344 59.2865 75.9055C58.3865 77.0767 56.836 77.2823 55.6687 76.3852C54.5014 75.4882 54.301 73.9371 55.201 72.7659C56.026 71.6923 57.6515 71.3891 58.8188 72.2862Z" fill="#FFCF2D"/>
<path d="M72.2441 54.8155C73.4114 55.7125 73.6118 57.2637 72.7118 58.4348C71.8118 59.606 70.2613 59.8116 69.094 58.9145C67.9267 58.0175 67.7263 56.4664 68.6263 55.2952C69.5263 54.124 71.0768 53.9184 72.2441 54.8155Z" fill="#FFCF2D"/>
<path d="M85.5942 37.4434C86.7614 38.3404 86.9619 39.8916 86.0619 41.0627C85.1619 42.2339 83.6114 42.4395 82.4441 41.5425C81.2768 40.6454 81.0764 39.0943 81.9764 37.9231C82.8764 36.752 84.4269 36.5464 85.5942 37.4434Z" fill="#FFCF2D"/>
<path d="M99.0195 19.9737C100.187 20.8707 100.387 22.4219 99.4872 23.593C98.5872 24.7642 97.0367 24.9698 95.8694 24.0727C94.7021 23.1757 94.5017 21.6246 95.4017 20.4534C96.3017 19.2822 97.8522 19.0766 99.0195 19.9737Z" fill="#FFCF2D"/>
<path d="M112.445 2.50397C113.612 3.40101 113.812 4.95214 112.912 6.1233C112.012 7.29445 110.462 7.50005 109.295 6.60302C108.127 5.70598 107.927 4.15483 108.827 2.98367C109.652 1.91011 111.277 1.60693 112.445 2.50397Z" fill="#FFCF2D"/>
<path d="M19.6865 153.206C20.8537 154.103 21.0542 155.654 20.1542 156.825C19.2542 157.997 17.6064 158.127 16.5364 157.305C15.3691 156.408 15.1687 154.857 16.0687 153.686C16.9687 152.515 18.5192 152.309 19.6865 153.206Z" fill="#FFCF2D"/>
<path d="M33.1117 135.735C34.279 136.632 34.4795 138.184 33.5795 139.355C32.6794 140.526 31.129 140.731 29.9617 139.834C28.7944 138.937 28.594 137.386 29.494 136.215C30.319 135.142 31.9445 134.838 33.1117 135.735Z" fill="#FFCF2D"/>
<path d="M46.4618 118.363C47.6291 119.26 47.8296 120.812 46.9296 121.983C46.0295 123.154 44.4791 123.359 43.3118 122.462C42.1445 121.565 41.9441 120.014 42.8441 118.843C43.7441 117.672 45.2946 117.466 46.4618 118.363Z" fill="#FFCF2D"/>
<path d="M59.8871 100.894C61.0544 101.791 61.2549 103.342 60.3549 104.513C59.4548 105.684 57.9044 105.89 56.7371 104.993C55.5698 104.096 55.3693 102.544 56.2694 101.373C57.1694 100.202 58.7199 99.9966 59.8871 100.894Z" fill="#FFCF2D"/>
<path d="M73.3124 83.4239C74.4797 84.3209 74.6802 85.8721 73.7801 87.0432C72.8801 88.2144 71.3297 88.42 70.1624 87.5229C68.9951 86.6259 68.7946 85.0748 69.6947 83.9036C70.5197 82.83 72.1451 82.5268 73.3124 83.4239Z" fill="#FFCF2D"/>
<path d="M86.7377 65.9541C87.905 66.8512 88.1055 68.4023 87.2054 69.5735C86.3054 70.7447 84.7549 70.9502 83.5877 70.0532C82.4204 69.1562 82.2199 67.605 83.1199 66.4339C84.02 65.2627 85.5704 65.0571 86.7377 65.9541Z" fill="#FFCF2D"/>
<path d="M100.088 48.5821C101.255 49.4791 101.456 51.0303 100.556 52.2014C99.6555 53.3726 98.105 53.5782 96.9378 52.6811C95.7705 51.7841 95.57 50.233 96.47 49.0618C97.3701 47.8906 98.9205 47.685 100.088 48.5821Z" fill="#FFCF2D"/>
<path d="M113.513 31.1123C114.68 32.0094 114.881 33.5605 113.981 34.7317C113.081 35.9029 111.53 36.1084 110.363 35.2114C109.196 34.3144 108.995 32.7632 109.895 31.5921C110.795 30.4209 112.346 30.2153 113.513 31.1123Z" fill="#FFCF2D"/>
<path d="M126.938 13.6426C128.106 14.5397 128.306 16.0908 127.406 17.262C126.506 18.4331 124.956 18.6387 123.788 17.7417C122.621 16.8447 122.421 15.2935 123.321 14.1223C124.146 13.0488 125.771 12.7456 126.938 13.6426Z" fill="#FFCF2D"/>
<path d="M62.9736 186.471C64.1408 187.368 64.3413 188.919 63.4413 190.09C62.5413 191.261 60.9908 191.467 59.8235 190.57C58.6562 189.673 58.4558 188.122 59.3558 186.95C60.2558 185.779 61.9036 185.648 62.9736 186.471Z" fill="#FFCF2D"/>
<path d="M76.3989 169.001C77.5661 169.898 77.7666 171.449 76.8666 172.62C75.9665 173.792 74.4161 173.997 73.2488 173.1C72.0815 172.203 71.8811 170.652 72.7811 169.481C73.6061 168.407 75.3288 168.179 76.3989 169.001Z" fill="#FFCF2D"/>
<path d="M89.749 151.629C90.9162 152.526 91.1167 154.077 90.2167 155.248C89.3167 156.419 87.7662 156.625 86.5989 155.728C85.4316 154.831 85.2312 153.28 86.1312 152.109C87.0312 150.938 88.6789 150.807 89.749 151.629Z" fill="#FFCF2D"/>
<path d="M103.174 134.159C104.342 135.056 104.542 136.607 103.642 137.779C102.742 138.95 101.191 139.155 100.024 138.258C98.8569 137.361 98.6565 135.81 99.5565 134.639C100.456 133.468 102.104 133.337 103.174 134.159Z" fill="#FFCF2D"/>
<path d="M116.6 116.689C117.767 117.587 117.967 119.138 117.067 120.309C116.167 121.48 114.617 121.686 113.449 120.789C112.282 119.892 112.082 118.34 112.982 117.169C113.807 116.096 115.53 115.867 116.6 116.689Z" fill="#FFCF2D"/>
<path d="M130.025 99.2188C131.192 100.116 131.393 101.667 130.493 102.838C129.593 104.009 128.042 104.215 126.875 103.318C125.707 102.421 125.507 100.87 126.407 99.6985C127.307 98.5274 128.955 98.3965 130.025 99.2188Z" fill="#FFCF2D"/>
<path d="M143.375 81.8467C144.542 82.7438 144.743 84.2949 143.843 85.4661C142.943 86.6372 141.392 86.8428 140.225 85.9458C139.058 85.0488 138.857 83.4976 139.757 82.3264C140.657 81.1553 142.305 81.0244 143.375 81.8467Z" fill="#FFCF2D"/>
<path d="M156.8 64.377C157.968 65.274 158.168 66.8252 157.268 67.9963C156.368 69.1675 154.817 69.3731 153.65 68.4761C152.483 67.579 152.282 66.0279 153.182 64.8567C154.082 63.6856 155.73 63.5547 156.8 64.377Z" fill="#FFCF2D"/>
<path d="M170.226 46.9073C171.393 47.8043 171.593 49.3554 170.693 50.5266C169.793 51.6978 168.243 51.9034 167.075 51.0063C165.908 50.1093 165.708 48.5581 166.608 47.387C167.433 46.3134 169.155 46.085 170.226 46.9073Z" fill="#FFCF2D"/>
<path d="M77.4672 197.608C78.6345 198.505 78.8349 200.057 77.9349 201.228C77.0349 202.399 75.4844 202.605 74.3172 201.708C73.1499 200.81 72.9494 199.259 73.8494 198.088C74.7495 196.917 76.2999 196.711 77.4672 197.608Z" fill="#FFCF2D"/>
<path d="M90.8925 180.139C92.0598 181.036 92.2602 182.587 91.3602 183.758C90.4602 184.929 88.9097 185.135 87.7424 184.238C86.5752 183.341 86.3747 181.79 87.2747 180.618C88.0998 179.545 89.7252 179.242 90.8925 180.139Z" fill="#FFCF2D"/>
<path d="M104.243 162.767C105.41 163.664 105.61 165.215 104.71 166.386C103.81 167.557 102.26 167.763 101.093 166.866C99.9253 165.969 99.7248 164.418 100.625 163.246C101.525 162.075 103.075 161.87 104.243 162.767Z" fill="#FFCF2D"/>
<path d="M118.136 148.916C119.005 147.784 118.796 146.164 117.668 145.297C116.54 144.43 114.92 144.645 114.05 145.777C113.18 146.909 113.39 148.529 114.518 149.396C115.646 150.263 117.266 150.048 118.136 148.916Z" fill="#FFCF2D"/>
<path d="M131.093 127.827C132.26 128.724 132.461 130.275 131.561 131.447C130.661 132.618 129.11 132.823 127.943 131.926C126.776 131.029 126.575 129.478 127.475 128.307C128.3 127.233 129.926 126.93 131.093 127.827Z" fill="#FFCF2D"/>
<path d="M144.518 110.357C145.686 111.254 145.886 112.806 144.986 113.977C144.086 115.148 142.536 115.354 141.368 114.457C140.201 113.559 140.001 112.008 140.901 110.837C141.801 109.666 143.351 109.46 144.518 110.357Z" fill="#FFCF2D"/>
<path d="M157.869 92.9854C159.036 93.8824 159.236 95.4336 158.336 96.6047C157.436 97.7759 155.886 97.9815 154.719 97.0845C153.551 96.1874 153.351 94.6363 154.251 93.4651C155.151 92.2939 156.701 92.0884 157.869 92.9854Z" fill="#FFCF2D"/>
<path d="M171.762 79.135C172.631 78.0031 172.422 76.3826 171.294 75.5157C170.166 74.6487 168.546 74.8635 167.676 75.9954C166.806 77.1273 167.016 78.7477 168.144 79.6147C169.272 80.4817 170.892 80.2669 171.762 79.135Z" fill="#FFCF2D"/>
<path d="M184.719 58.0459C185.886 58.943 186.087 60.4941 185.187 61.6653C184.287 62.8364 182.736 63.042 181.569 62.145C180.402 61.248 180.201 59.6968 181.101 58.5257C181.926 57.4521 183.552 57.1489 184.719 58.0459Z" fill="#FFCF2D"/>
<path d="M91.9609 208.747C93.1282 209.644 93.3286 211.195 92.4286 212.366C91.5286 213.538 89.9781 213.743 88.8108 212.846C87.6435 211.949 87.4431 210.398 88.3431 209.227C89.2431 208.056 90.7936 207.85 91.9609 208.747Z" fill="#FFCF2D"/>
<path d="M105.386 191.277C106.553 192.174 106.754 193.726 105.854 194.897C104.954 196.068 103.403 196.273 102.236 195.376C101.069 194.479 100.868 192.928 101.768 191.757C102.593 190.684 104.219 190.38 105.386 191.277Z" fill="#FFCF2D"/>
<path d="M118.736 173.905C119.904 174.802 120.104 176.354 119.204 177.525C118.304 178.696 116.753 178.901 115.586 178.004C114.419 177.107 114.218 175.556 115.118 174.385C116.018 173.214 117.569 173.008 118.736 173.905Z" fill="#FFCF2D"/>
<path d="M132.162 156.436C133.329 157.333 133.529 158.884 132.629 160.055C131.729 161.226 130.179 161.432 129.012 160.535C127.844 159.638 127.644 158.086 128.544 156.915C129.444 155.744 130.994 155.539 132.162 156.436Z" fill="#FFCF2D"/>
<path d="M145.587 138.966C146.754 139.863 146.955 141.414 146.055 142.585C145.155 143.756 143.604 143.962 142.437 143.065C141.27 142.168 141.069 140.617 141.969 139.446C142.794 138.372 144.42 138.069 145.587 138.966Z" fill="#FFCF2D"/>
<path d="M159.012 121.495C160.179 122.392 160.38 123.943 159.48 125.115C158.58 126.286 157.029 126.491 155.862 125.594C154.695 124.697 154.494 123.146 155.394 121.975C156.294 120.804 157.845 120.598 159.012 121.495Z" fill="#FFCF2D"/>
<path d="M172.362 104.123C173.53 105.02 173.73 106.571 172.83 107.742C171.93 108.914 170.379 109.119 169.212 108.222C168.045 107.325 167.844 105.774 168.744 104.603C169.644 103.432 171.195 103.226 172.362 104.123Z" fill="#FFCF2D"/>
<path d="M185.788 86.6534C186.955 87.5504 187.155 89.1016 186.255 90.2727C185.355 91.4439 183.805 91.6495 182.637 90.7524C181.47 89.8554 181.27 88.3042 182.17 87.1331C183.07 85.9619 184.62 85.7563 185.788 86.6534Z" fill="#FFCF2D"/>
<path d="M199.213 69.1837C200.38 70.0807 200.581 71.6318 199.681 72.803C198.781 73.9741 197.23 74.1797 196.063 73.2827C194.895 72.3857 194.695 70.8345 195.595 69.6634C196.42 68.5898 198.046 68.2866 199.213 69.1837Z" fill="#FFCF2D"/>
<path d="M106.357 219.811C107.525 220.708 107.725 222.259 106.825 223.43C105.925 224.601 104.375 224.807 103.207 223.91C102.04 223.013 101.84 221.461 102.74 220.29C103.64 219.119 105.287 218.988 106.357 219.811Z" fill="#FFCF2D"/>
<path d="M119.783 202.341C120.95 203.238 121.15 204.789 120.25 205.96C119.35 207.131 117.8 207.337 116.633 206.44C115.465 205.543 115.265 203.992 116.165 202.821C116.99 201.747 118.713 201.519 119.783 202.341Z" fill="#FFCF2D"/>
<path d="M133.133 184.969C134.3 185.866 134.5 187.417 133.6 188.588C132.7 189.759 131.15 189.965 129.983 189.068C128.815 188.171 128.615 186.62 129.515 185.449C130.415 184.277 132.063 184.147 133.133 184.969Z" fill="#FFCF2D"/>
<path d="M146.558 167.499C147.725 168.396 147.926 169.947 147.026 171.118C146.126 172.29 144.575 172.495 143.408 171.598C142.241 170.701 142.04 169.15 142.94 167.979C143.84 166.808 145.488 166.677 146.558 167.499Z" fill="#FFCF2D"/>
<path d="M159.983 150.028C161.151 150.925 161.351 152.477 160.451 153.648C159.551 154.819 158.001 155.024 156.833 154.127C155.666 153.23 155.466 151.679 156.366 150.508C157.191 149.435 158.913 149.206 159.983 150.028Z" fill="#FFCF2D"/>
<path d="M173.409 132.559C174.576 133.456 174.776 135.007 173.876 136.178C172.976 137.349 171.426 137.555 170.259 136.658C169.091 135.761 168.891 134.21 169.791 133.038C170.691 131.867 172.339 131.736 173.409 132.559Z" fill="#FFCF2D"/>
<path d="M186.759 115.187C187.926 116.084 188.126 117.635 187.226 118.806C186.326 119.977 184.776 120.183 183.609 119.286C182.441 118.389 182.241 116.837 183.141 115.666C184.041 114.495 185.689 114.364 186.759 115.187Z" fill="#FFCF2D"/>
<path d="M200.184 97.7168C201.351 98.6139 201.552 100.165 200.652 101.336C199.752 102.507 198.201 102.713 197.034 101.816C195.867 100.919 195.666 99.3677 196.566 98.1966C197.466 97.0254 199.114 96.8946 200.184 97.7168Z" fill="#FFCF2D"/>
<path d="M213.609 80.2471C214.777 81.1442 214.977 82.6953 214.077 83.8665C213.177 85.0376 211.627 85.2432 210.459 84.3462C209.292 83.4491 209.092 81.898 209.992 80.7268C210.817 79.6533 212.539 79.4248 213.609 80.2471Z" fill="#FFCF2D"/>
</g>
<defs>
<clipPath id="clip0_2234_9590">
<rect width="181.184" height="132.739" fill="white" transform="translate(0 144.597) rotate(-52.4584)"/>
</clipPath>
</defs>
</svg>
